# xmcd
#
# Track frame offsets: 
#        150
#        12824
#        31330
#        58377
#        81105
#        96341
#        132399
#
# Disc length: 2173 seconds
#
# Revision: 1
# Processed by: cddbd v1.5.2PL0 Copyright (c) Steve Scherf et al.
# Submitted via: ExactAudioCopy v1.3
#
DISCID=58087b07
DTITLE=Barry White - I Love To SingThe Songs I Sing
DYEAR=1979
DGENRE=Soul
TTITLE0=I Love To Sing The Songs I Sing
TTITLE1=Girl, What's Your Name
TTITLE2=Once Upon A Time (You Were A Friend Of Mine)
TTITLE3=Oh Me, Oh My (I'm Such A Lucky Guy)
TTITLE4=I Can't Leave You Alone
TTITLE5=Call Me, Baby
TTITLE6=How Did You Know It Was Me?
EXTD=
EXTT0=
EXTT1=
EXTT2=
EXTT3=
EXTT4=
EXTT5=
EXTT6=
PLAYORDER=
